
<svg xmlns="http://www.w3.org/2000/svg" viewBox="0 0 512 512">
  <g>
    <path fill="#e01e5a" d="M144 316a36 36 0 1 1-36-36h36zm18 0a18 18 0 0 1 36 0v90a36 36 0 1 1-36-36z"/>
    <path fill="#36c5f0" d="M196 144a36 36 0 1 1 36-36v36zm0 18a18 18 0 1 1 0 36h-90a36 36 0 0 1 0-36z"/>
    <path fill="#2eb67d" d="M368 196a36 36 0 1 1 36 36h-36zm-18 0a18 18 0 0 1-36 0v-90a36 36 0 1 1 36 36z"/>
    <path fill="#ecb22e" d="M316 368a36 36 0 1 1-36 36v-36zm0-18a18 18 0 1 1 0-36h90a36 36 0 0 1 0 36z"/>
  </g>
</svg>
