
<svg xmlns="http://www.w3.org/2000/svg" viewBox="0 0 960 216"><path fill="#2d8cff" d="M208.9 0c41.9 0 63.7 17.6 72.8 29 12.4 16 17 31.7 17 53.1v80.8c0 21.2-6 37.9-18.2 52.2-10.5 12.3-31.5 28.9-71.6 28.9-40.5 0-61.4-16.6-71.8-28.9C124.7 200.8 119 184.1 119 163V81.1c0-21.3 6.7-37 19.1-53.1C145.5 17.6 167.3 0 208.9 0ZM167.3 94.7v66.1c0 28.6 21.4 47.1 53.5 47.1 32.4 0 53.7-18.5 53.7-47.1V94.7h-13.6v64c0 17.6-15.5 26.8-40.1 26.8-24.3 0-39.7-9.2-39.7-26.8v-64Zm53.5-78.3c-30.5 0-49.4 12.6-61.1 27.9C148.7 55.1 142.1 68 142.1 81.1v81.9c0 13.9 6.1 26.7 18 40.3 10.9 12.2 30 27.6 60.8 27.6 30.5 0 49.5-12.6 61.2-27.6 12-13.5 17.6-26.4 17.6-40.3V81.1c0-13-6.1-25.9-19.1-40.4C255.5 29 237.1 16.4 216.5 16.4Zm408.7 9.1 35.5 34.7-14.5 14.9-36.1-34.8Zm118.1 100.8c-1.7 0-12.7-2-17.8-2.7-9.8-1.5-27.4-4-41.6-10-31.7-13-49.8-39.6-49.8-72.6C615.1 23.7 643 0 685 0c46.6 0 73.3 23.7 73.3 62.2 0 29.5-19.9 52.6-51.3 60.7 8.8 4.7 25.9 14.1 31.7 23.2 4 6.3 5.5 11.2 5.5 14.3 0 7.7-7.8 17.6-18.8 23.2-13.4 7-37.5 11.5-50.9 11.5Zm9.2-14.3v13.7c13.4-1.6 36.1-6.5 45.4-13 4.8-3.6 7.7-7.9 7.7-10.2 0-2.6-2.2-7-7.7-15.2-4.8-7-16.6-16-28.7-20.5-10.2 2.7-23.9 5.2-34.5 5.7 10 7.2 28.1 14.6 42.1 19.5ZM685 13.6c-35.2 0-56.6 17.9-56.6 50.7 0 26.7 14 48.3 39.3 58.7 14.2 5.8 31 8.2 39.8 9.3 6.2-.3 24.1-2 36.7-6.6 20.9-7.5 31.9-24.1 31.9-47.5 0-31.7-23.6-50.6-60.2-50.6ZM812.6 213.9c-39.2 0-62-18.1-62-48.3v-81.9c0-31.1 23.2-49.7 62-49.7 39.4 0 62 18.7 62 49.7v81.9c0 30.3-22.5 48.3-61.8 48.3Zm0-173.3c-32.7 0-50.3 13.1-50.3 36.5v81.9c0 24 16.7 37.1 50.4 37.1 33.5 0 50.1-13.1 50.1-37.1v-81.9c0-23.4-17.4-36.5-50.2-36.5Zm147.7 172.7c-11.2 0-24.5-2.4-34.6-8.4-14-8.4-21.5-21.6-21.5-38.9V13.8h13.3v43.1h1.2c6.7-16.6 23.8-25.4 48.8-25.4 33.6 0 47.8 15.6 47.8 55.7v87.5h-13.3v-87.5c0-32.7-11.1-43.3-38.9-43.3-21.3 0-43.6 7.5-43.6 36.6v70.5c0 13 5.1 22.7 16.2 29.5 8.1 4.9 18.8 7.2 30.8 7.2 13.9 0 25.2-2.5 33.4-7.5 11.5-7.2 17.2-18.8 17.2-34.5v-30.1h13.2v30.1c0 20-7.2 34.5-21.9 42.5-9.8 5.2-22.4 7.7-35.5 7.7Zm-694.6-.1C49.3 213.2 0 163.5 0 108.2S49.3 3.2 108.2 3.2c33.1 0 64.3 12.1 87.6 33.8l-9.7 10.5c-21.3-19.1-49.2-29.7-77.9-29.7-58.1 0-105.4 47.6-105.4 105.7s47.3 105.7 105.4 105.7c28.9 0 56.8-10.5 76.8-29.7l9.6 10.6c-23.2 21.8-54.4 33.9-87.6 33.9Z"/></svg>
